<svg id="Layer_1" data-name="Layer 1" xmlns="http://www.w3.org/2000/svg" viewBox="0 0 80 80"><defs><style>.cls-1{fill:#6a6a6a;}.cls-2{fill:#e4b363;}</style></defs><title>business</title><path class="cls-1" d="M63.49,52.34a1,1,0,0,1-.89-1.45A23.8,23.8,0,0,0,65.19,40,24.06,24.06,0,0,0,28.26,19.67,1,1,0,0,1,27.19,18,26.07,26.07,0,0,1,64.38,51.79,1,1,0,0,1,63.49,52.34Z"/><path class="cls-1" d="M41.13,66.06A26.09,26.09,0,0,1,15.07,40a25.79,25.79,0,0,1,2.82-11.8,1,1,0,0,1,1.78.91A23.8,23.8,0,0,0,17.07,40,24.06,24.06,0,0,0,53.89,60.4,1,1,0,0,1,55,62.1,26,26,0,0,1,41.13,66.06Z"/><path class="cls-2" d="M22.76,31a7.68,7.68,0,1,1,7.68-7.68A7.69,7.69,0,0,1,22.76,31Zm0-13.37a5.68,5.68,0,1,0,5.68,5.68A5.69,5.69,0,0,0,22.76,17.6Z"/><path class="cls-2" d="M59.52,64.39a7.68,7.68,0,1,1,7.68-7.68A7.69,7.69,0,0,1,59.52,64.39Zm0-13.37a5.68,5.68,0,1,0,5.68,5.68A5.69,5.69,0,0,0,59.52,51Z"/><path class="cls-1" d="M41.14,52.69A12.69,12.69,0,1,1,53.83,40,12.71,12.71,0,0,1,41.14,52.69Zm0-23.39A10.69,10.69,0,1,0,51.83,40,10.71,10.71,0,0,0,41.14,29.3Z"/><path class="cls-1" d="M48.82,50h-2V48.35a5.68,5.68,0,0,0-11.37,0V50h-2V48.35a7.68,7.68,0,0,1,15.37,0Z"/><path class="cls-1" d="M41.14,42.67a4.34,4.34,0,1,1,4.34-4.34A4.35,4.35,0,0,1,41.14,42.67Zm0-6.68a2.34,2.34,0,1,0,2.34,2.34A2.34,2.34,0,0,0,41.14,36Z"/></svg>