<svg id="Layer_1" data-name="Layer 1" xmlns="http://www.w3.org/2000/svg" viewBox="0 0 80 80"><defs><style>.cls-1{fill:#6a6a6a;}.cls-2{fill:#e4b363;}</style></defs><title>defence</title><path class="cls-1" d="M15.62,60.65a31.95,31.95,0,0,1,.56-41.94L17.68,20a29.95,29.95,0,0,0-.53,39.32Z"/><path class="cls-1" d="M40,71.94a31.9,31.9,0,0,1-21.24-8.08l1.33-1.49a29.95,29.95,0,0,0,39.19.54l1.29,1.53A32,32,0,0,1,40,71.94Z"/><path class="cls-1" d="M64.35,60.68l-1.52-1.29a29.95,29.95,0,0,0-.12-38.91l1.52-1.3a31.95,31.95,0,0,1,.13,41.51Z"/><path class="cls-1" d="M20.15,17.57l-1.33-1.5a32,32,0,0,1,41.93-.36l-1.3,1.52a29.95,29.95,0,0,0-39.3.34Z"/><path class="cls-1" d="M28.62,48.17A14,14,0,0,1,28.49,32l1.64,1.14A12,12,0,0,0,30.25,47Z"/><path class="cls-1" d="M40,54a13.91,13.91,0,0,1-8.25-2.69l1.18-1.62a12,12,0,0,0,14.3-.12l1.21,1.6A13.88,13.88,0,0,1,40,54Z"/><path class="cls-1" d="M51.21,48.39l-1.6-1.2a12,12,0,0,0,0-14.41l1.6-1.2a14,14,0,0,1,0,16.81Z"/><path class="cls-1" d="M32.77,30.42l-1.21-1.6a14,14,0,0,1,16.88,0l-1.21,1.6a12,12,0,0,0-14.47,0Z"/><rect class="cls-1" x="46.47" y="51.51" width="2" height="18.12" transform="translate(-17.92 19.99) rotate(-20.09)"/><rect class="cls-1" x="31.4" y="10.4" width="2" height="17.94" transform="translate(-4.68 12.31) rotate(-20.09)"/><rect class="cls-1" x="23.41" y="59.63" width="17.96" height="2" transform="translate(-35.68 70.19) rotate(-69.88)"/><rect class="cls-1" x="38.34" y="18.5" width="18.24" height="2" transform="translate(12.83 57.36) rotate(-69.88)"/><rect class="cls-1" x="10.39" y="46.43" width="18.2" height="2" transform="translate(-15.19 9.66) rotate(-20.22)"/><rect class="cls-1" x="51.61" y="31.27" width="17.99" height="2" transform="translate(-7.42 22.94) rotate(-20.22)"/><rect class="cls-1" x="18.49" y="23.29" width="2" height="18.23" transform="translate(-17.62 39.64) rotate(-70.02)"/><rect class="cls-1" x="59.68" y="38.42" width="2" height="17.92" transform="translate(-4.57 88.23) rotate(-70.03)"/><path class="cls-2" d="M29.87,33.45a2,2,0,0,1-1.42-.59L15.88,20.3a2,2,0,0,1,0-2.85l1.57-1.57a2,2,0,0,1,1.42-.59h0a2,2,0,0,1,1.42.59L32.86,28.44a2,2,0,0,1,0,2.85l-1.57,1.57a2,2,0,0,1-1.42.59Zm-11-16.15L17.3,18.87,29.86,31.44l1.59-1.57L18.88,17.3Z"/><path class="cls-2" d="M61.05,64.63h0A2,2,0,0,1,59.63,64L47.07,51.48a2,2,0,0,1,0-2.85l1.57-1.57a2,2,0,0,1,1.42-.59h0a2,2,0,0,1,1.42.59L64,59.63a2,2,0,0,1,0,2.85L62.48,64A2,2,0,0,1,61.05,64.63Zm-11-16.15-1.59,1.57L61,62.63l1.59-1.57a0,0,0,0,0,0,0Z"/><path class="cls-2" d="M50.06,33.45a2,2,0,0,1-1.42-.59l-1.57-1.57a2,2,0,0,1,0-2.85L59.63,15.88a2,2,0,0,1,1.42-.59h0a2,2,0,0,1,1.42.59L64,17.45a2,2,0,0,1,0,2.85L51.48,32.86a2,2,0,0,1-1.42.59Zm11-16.15L48.48,29.86l1.57,1.59h0L62.63,18.88Z"/><path class="cls-2" d="M18.88,64.63A2,2,0,0,1,17.45,64l-1.57-1.57a2,2,0,0,1,0-2.85L28.44,47.07a2,2,0,0,1,2.85,0l1.57,1.57a2,2,0,0,1,0,2.85L20.3,64a2,2,0,0,1-1.42.59Zm11-16.15L17.3,61l1.57,1.59h0L31.45,50.07Z"/></svg>