<svg id="Layer_1" data-name="Layer 1" xmlns="http://www.w3.org/2000/svg" viewBox="0 0 80 80"><defs><style>.cls-1{fill:#6a6a6a;}.cls-2{fill:#e4b363;}</style></defs><title>dialog</title><path class="cls-1" d="M68,16H24a4,4,0,0,0-4,4v6H12a4,4,0,0,0-4,4V60a4,4,0,0,0,4,4h7a1,1,0,0,1,1,1V76a4,4,0,0,0,6.83,2.83L41,64.67A2.13,2.13,0,0,1,42.66,64H58a4,4,0,0,0,4-4V52h6a4,4,0,0,0,4-4V20A4,4,0,0,0,68,16ZM60,60a2,2,0,0,1-2,2H42.66A3.21,3.21,0,0,0,40,63L26,77c-2.14,2.14-4,.39-4-1V64a2,2,0,0,0-2-2H12a2,2,0,0,1-2-2V30a2,2,0,0,1,2-2H58a2,2,0,0,1,2,2ZM70,48a2,2,0,0,1-2,2H62V30a4,4,0,0,0-4-4H22V20a2,2,0,0,1,2-2H68a2,2,0,0,1,2,2Z"/><path class="cls-2" d="M21,40H34a1,1,0,0,0,0-2H21a1,1,0,0,0,0,2Z"/><path class="cls-2" d="M49,44H21a1,1,0,0,0,0,2H49a1,1,0,0,0,0-2Z"/><path class="cls-2" d="M42,50H21a1,1,0,0,0,0,2H42a1,1,0,0,0,0-2Z"/></svg>