<?xml version="1.0" encoding="utf-8"?>
<!-- Generator: Adobe Illustrator 20.1.0, SVG Export Plug-In . SVG Version: 6.00 Build 0)  -->
<svg version="1.1" id="Layer_1" xmlns="http://www.w3.org/2000/svg" xmlns:xlink="http://www.w3.org/1999/xlink" x="0px" y="0px"
	 viewBox="0 0 283 42.1" style="enable-background:new 0 0 283 42.1;" xml:space="preserve">
<style type="text/css">
	.st0{fill:#782B90;}
	.st1{fill:#FFFFFF;}
</style>
<g>
	<path class="st0" d="M27.8,11.6c-0.2,0.6-0.4,1.1-0.6,1.8l-6.1,17l-2.1-5.3v0.3c0.1,0.4,0.1,1.1,0.2,2.1c0.2,1,0.6,2.1,1.3,3.2
		c0.7,1.1,1.8,2.1,3.2,3l4.2-11.6v-11C27.9,11.3,27.9,11.5,27.8,11.6"/>
	<path class="st0" d="M24.6,6.4V9H25h0.4c0.7,0.1,1.4,0.1,1.9,0.3c0.3,0.1,0.5,0.3,0.6,0.5V6.4h-2.8H24.6z"/>
	<path class="st1" d="M66.7,32.5h-1.5v4h-1.6v-9.3h1.6v3.9h1.5c0.3-2.3,2.1-4.1,4.4-4.1c2.6,0,4.5,2.1,4.5,4.8
		c0,2.7-1.8,4.8-4.5,4.8C68.7,36.6,67,34.9,66.7,32.5 M74,31.8c0-1.9-1.2-3.3-2.8-3.3s-2.8,1.4-2.8,3.3c0,1.9,1.2,3.3,2.8,3.3
		C72.8,35.2,74,33.7,74,31.8"/>
	<path class="st1" d="M77.6,27.2h3.7c2.2,0,3.5,1.2,3.5,3.1c0,2.1-1.7,3.2-3.7,3.2h-1.9v3h-1.6V27.2z M81.2,32c1.2,0,2-0.7,2-1.7
		c0-1.1-0.8-1.7-2-1.7h-1.9V32H81.2z"/>
	<polygon class="st1" points="86.5,27.2 88.1,27.2 88.1,34 92.9,27.2 94.4,27.2 94.4,36.5 92.8,36.5 92.8,29.7 88.1,36.5 86.5,36.5 
			"/>
	<path class="st1" d="M95.7,35h0.9c0.8-1.5,1.2-3.4,1.2-6.5v-1.3h6.5V35h1.2l-0.2,3.5h-1.4v-2h-6.6l-0.2,2h-1.4V35z M102.7,35v-6.4
		h-3.3v1.1c0,2.2-0.4,4-1,5.3H102.7z"/>
	<polygon class="st1" points="107,27.2 108.6,27.2 108.6,34 113.3,27.2 114.8,27.2 114.8,36.5 113.2,36.5 113.2,29.7 108.5,36.5 
		107,36.5 	"/>
	<path class="st1" d="M122.7,32.8c-0.7,0.3-1.7,0.8-2.7,0.8c-1.8,0-3.1-1-3.1-3v-3.4h1.6v3c0,1.2,0.6,1.9,1.7,1.9
		c0.9,0,1.8-0.3,2.4-0.7v-4.2h1.6v9.3h-1.6V32.8z"/>
	<polygon class="st1" points="126.7,27.2 133.7,27.2 133.7,28.6 128.4,28.6 128.4,31.1 133.1,31.1 133.1,32.5 128.4,32.5 128.4,35 
		133.7,35 133.7,36.5 126.7,36.5 	"/>
	<path class="st1" d="M135.3,31.8c0-2.6,2-4.8,4.8-4.8c1.7,0,2.8,0.6,3.6,1.5l-1.1,1.2c-0.7-0.7-1.5-1.2-2.6-1.2
		c-1.8,0-3.1,1.5-3.1,3.3c0,1.8,1.3,3.3,3.1,3.3c1.1,0,1.9-0.5,2.7-1.2l1,1.1c-1,1-2,1.6-3.8,1.6C137.3,36.6,135.3,34.5,135.3,31.8"
		/>
	<polygon class="st1" points="145.5,27.2 147.1,27.2 147.1,31.9 151.6,27.2 153.6,27.2 149.7,31.2 153.8,36.5 151.8,36.5 
		148.6,32.3 147.1,33.8 147.1,36.5 145.5,36.5 	"/>
	<polygon class="st1" points="155.2,27.2 156.8,27.2 156.8,34 161.5,27.2 163,27.2 163,36.5 161.4,36.5 161.4,29.7 156.7,36.5 
		155.2,36.5 	"/>
	<polygon class="st1" points="165.4,27.2 172.3,27.2 172.3,28.6 167.1,28.6 167.1,31.1 171.7,31.1 171.7,32.5 167.1,32.5 167.1,35 
		172.4,35 172.4,36.5 165.4,36.5 	"/>
	<path class="st1" d="M178.1,36.2l0.6-1.2c0.4,0.2,0.7,0.3,1.1,0.3c0.4,0,1-0.3,1.5-1l-3.9-7.1h1.8l2.9,5.4l2.6-5.4h1.8l-3.6,7.3
		c-0.8,1.6-1.7,2.2-3,2.2C179.2,36.6,178.7,36.5,178.1,36.2"/>
	<path class="st1" d="M187,31.8c0-2.6,2-4.8,4.8-4.8c1.7,0,2.8,0.6,3.6,1.5l-1.1,1.2c-0.7-0.7-1.5-1.2-2.6-1.2
		c-1.8,0-3.1,1.5-3.1,3.3c0,1.8,1.3,3.3,3.1,3.3c1.1,0,1.9-0.5,2.7-1.2l1.1,1.1c-1,1-2,1.6-3.8,1.6C189.1,36.6,187,34.5,187,31.8"/>
	<path class="st1" d="M196.1,36.4l0.2-1.3c0.1,0,0.3,0.1,0.5,0.1c0.9,0,1.8-0.6,1.8-6.2v-1.8h6.4v9.3h-1.6v-7.8h-3.2v0.8
		c0,5.9-1.1,7.1-2.9,7.1C196.9,36.6,196.4,36.5,196.1,36.4"/>
	<path class="st1" d="M207.3,36.2l0.6-1.2c0.4,0.2,0.7,0.3,1.1,0.3c0.4,0,1-0.3,1.5-1l-3.9-7.1h1.8l2.9,5.4l2.6-5.4h1.8l-3.6,7.3
		c-0.8,1.6-1.7,2.2-3,2.2C208.4,36.6,207.8,36.5,207.3,36.2"/>
	<polygon class="st1" points="217.2,27.2 223.5,27.2 223.5,28.6 218.8,28.6 218.8,36.5 217.2,36.5 	"/>
	<polygon class="st1" points="225.1,27.2 226.7,27.2 226.7,34 231.5,27.2 233,27.2 233,36.5 231.4,36.5 231.4,29.7 226.7,36.5 
		225.1,36.5 	"/>
	<path class="st1" d="M63.9,6.4h6c1.5,0,2.7,0.4,3.4,1.2c0.6,0.6,0.9,1.3,0.9,2.3c0,1.5-0.8,2.3-1.7,2.8c1.5,0.6,2.4,1.5,2.4,3.2
		c0,2.4-1.9,3.6-4.9,3.6h-6.2V6.4z M69.3,11.7c1.3,0,2.1-0.4,2.1-1.4c0-0.9-0.7-1.3-1.9-1.3h-2.8v2.8H69.3z M70.1,16.9
		c1.3,0,2-0.4,2-1.5c0-0.9-0.7-1.4-2.1-1.4h-3.3v2.9H70.1z"/>
	<path class="st1" d="M81.4,6.3h2.6l5.6,13.1h-3l-1.2-2.9h-5.5l-1.2,2.9h-2.9L81.4,6.3z M84.4,14l-1.7-4.2L81,14H84.4z"/>
	<polygon class="st1" points="109.5,19.5 91.6,19.5 91.6,6.4 94.5,6.4 94.5,16.9 99.1,16.9 99.1,6.4 102,6.4 102,16.9 106.6,16.9 
		106.6,6.4 109.5,6.4 	"/>
	<path class="st1" d="M122.9,14.2h-1.8v5.3h-2.9v-13h2.9v5.2h1.8c0.5-3.1,3-5.4,6.3-5.4c3.7,0,6.3,3,6.3,6.7c0,3.7-2.6,6.7-6.4,6.7
		C125.8,19.7,123.4,17.4,122.9,14.2 M132.5,13c0-2.3-1.4-4.1-3.4-4.1c-2,0-3.4,1.8-3.4,4.1c0,2.3,1.4,4.1,3.4,4.1
		C131.2,17.1,132.5,15.3,132.5,13"/>
	<path class="st1" d="M138,6.4h5.3c3.1,0,5,1.8,5,4.5c0,3-2.3,4.6-5.3,4.6h-2.2v3.9H138V6.4z M143.1,13c1.4,0,2.3-0.9,2.3-2
		c0-1.3-0.9-2-2.3-2h-2.2v4H143.1z"/>
	<polygon class="st1" points="161.6,19.5 158.8,19.5 158.8,10.9 153.1,19.5 150.4,19.5 150.4,6.4 153.2,6.4 153.2,15 159,6.4 
		161.6,6.4 	"/>
	<path class="st1" d="M164.2,13c0-3.7,2.8-6.7,6.8-6.7c2.5,0,3.8,0.9,5,2.1l-1.7,2c-1-0.9-1.9-1.4-3.3-1.4c-2.2,0-3.8,1.8-3.8,4.1
		c0,2.2,1.5,4.1,3.8,4.1c1.5,0,2.4-0.6,3.4-1.5l1.8,2c-1.3,1.4-2.8,2.2-5.3,2.2C167,19.7,164.2,16.7,164.2,13"/>
	<polygon class="st1" points="178.5,6.4 181.3,6.4 181.3,12.1 186.6,6.4 190.1,6.4 184.8,12 190.3,19.5 186.9,19.5 182.8,13.9 
		181.3,15.5 181.3,19.5 178.5,19.5 	"/>
	<path class="st1" d="M190.5,13c0-3.7,2.9-6.7,6.9-6.7c4,0,6.9,3,6.9,6.7c0,3.7-2.9,6.7-6.9,6.7C193.4,19.7,190.5,16.7,190.5,13
		 M201.4,13c0-2.2-1.6-4.1-3.9-4.1c-2.3,0-3.9,1.8-3.9,4.1c0,2.2,1.6,4.1,3.9,4.1C199.8,17,201.4,15.2,201.4,13"/>
	<polygon class="st1" points="206.9,6.4 209.8,6.4 209.8,11.6 215.1,11.6 215.1,6.4 217.9,6.4 217.9,19.5 215.1,19.5 215.1,14.2 
		209.8,14.2 209.8,19.5 206.9,19.5 	"/>
	<path class="st1" d="M220.5,13c0-3.7,2.8-6.7,6.8-6.7c2.5,0,3.8,0.9,5,2.1l-1.7,2c-1-0.9-1.9-1.4-3.3-1.4c-2.2,0-3.8,1.8-3.8,4.1
		c0,2.2,1.5,4.1,3.8,4.1c1.5,0,2.4-0.6,3.4-1.5l1.8,2c-1.3,1.4-2.8,2.2-5.3,2.2C223.3,19.7,220.5,16.7,220.5,13"/>
	<path class="st1" d="M243.4,6.4h3.1l-5,10.1c-1.1,2.3-2.4,3.2-4.3,3.2c-1.1,0-2-0.3-2.8-0.8l1.1-2.1c0.5,0.3,1,0.4,1.5,0.4
		c0.5,0,1.1-0.2,1.6-1l-5.2-9.7h3.2l3.5,6.9L243.4,6.4z"/>
	<path class="st1" d="M258.5,6.4v13h-2.9V9h-3.8v1c0,7.7-1.2,9.6-4.2,9.6c-0.5,0-1.2-0.1-1.5-0.2l0.2-2.4c0.1,0,0.3,0,0.4,0
		c1.5,0,2.4-1,2.4-8V6.4H258.5z"/>
	<path class="st1" d="M261.6,6.4h2.9v4.4h2.8c3,0,4.8,1.7,4.8,4.2c0,2.7-1.9,4.4-4.9,4.4h-5.5V6.4z M264.5,13.3v3.6h2.5
		c1.4,0,2.1-0.6,2.1-1.8c0-1.1-0.7-1.7-2.2-1.7H264.5z"/>
	<polygon class="st1" points="276.1,9.1 272.2,9.1 272.2,6.4 283,6.4 283,9.1 279,9.1 279,19.5 276.1,19.5 	"/>
	<path class="st0" d="M31.7,12.1c0.2-0.3,0.3-0.5,0.4-0.7c0.3-0.6,0.8-1.1,1.4-1.7C34.1,9.3,35,9,36.2,9h0.2h0.2V6.4H25.2h-0.5V9H25
		h0.4c0.7,0.1,1.4,0.1,1.9,0.3c0.5,0.2,0.8,0.5,0.8,1.1c-0.1,0.4-0.1,0.8-0.3,1.3c-0.2,0.6-0.4,1.1-0.6,1.8l-6.1,17l-7.1-18
		C14,12.3,14,12.3,14,12.2c-0.1-0.1-0.1-0.2-0.1-0.3c-0.1-0.2-0.1-0.2-0.1-0.3c-0.1-0.1-0.1-0.2-0.1-0.3c-0.1-0.2-0.1-0.4-0.1-0.5
		c-0.1-0.2-0.1-0.3-0.1-0.4c0.1-0.6,0.3-0.9,0.7-1c0.5-0.3,1-0.4,1.6-0.4h0.1h0.2h0.1h0.1h0.1h0.1V6.4H0.5H0V9h0.6
		C1.1,9,1.6,9,2,9.1c0.4,0.1,0.8,0.4,1.3,0.8c0.4,0.4,0.7,0.9,1.1,1.7c0.4,0.8,0.8,1.7,1.3,2.9l10.9,27.6h3.6h0.5l9.6-26.6
		c0.1-0.2,0.2-0.4,0.2-0.5c0.1-0.2,0.1-0.3,0.2-0.4v-0.1l0.1-0.1c0.1-0.3,0.2-0.5,0.3-0.7c0.1-0.3,0.3-0.7,0.5-1.1
		C31.6,12.5,31.6,12.3,31.7,12.1"/>
	<path class="st0" d="M18.3,3.2c0.5,0.4,0.7,1.1,0.7,2.1v16.6l2,5.1l5-14c0.1-0.2,0.2-0.5,0.2-0.7c0.1-0.4,0.2-0.7,0.3-1
		c0.1-0.4,0.2-0.7,0.2-0.9c-0.4-0.1-0.9-0.1-1.5-0.2H25h-0.4h-1.2V9V6.4V5.2h1.2h0.5h2.8c0-1.1,0.2-1.7,0.6-2
		c0.5-0.4,1.3-0.6,2.3-0.6h1V0H15.6h-0.5v2.6h1C17.2,2.7,17.9,2.8,18.3,3.2"/>
	<path class="st0" d="M41.6,0h-0.5v2.6c1.8,0.1,2.8,0.3,3.2,0.6C44.8,3.6,45,4.3,45,5.4v17.2c-0.1,3.5-0.6,6.2-1.8,8
		c-1.2,1.8-3.6,2.8-7.2,2.8c-2.4-0.1-4.2-0.6-5.3-1.6c-1.1-1.1-1.9-2.2-2.3-3.4C28.2,27.6,28,26.8,28,26c0-0.1,0-0.3,0-0.4l-3.2,8.8
		c0.1,0.1,0.3,0.2,0.4,0.3c2.2,1.2,5.5,1.8,9.8,1.8l0.5-0.1c5,0,8.4-1.1,10.3-3.3c1.9-2.2,2.9-5.6,2.9-10.2V5.3
		c0-1.1,0.2-1.8,0.6-2.1c0.5-0.4,1.3-0.6,2.3-0.6h1V0H41.6z"/>
</g>
</svg>
