<svg id="Layer_1" data-name="Layer 1" xmlns="http://www.w3.org/2000/svg" viewBox="0 0 80 80"><defs><style>.cls-1{fill:#6a6a6a;}.cls-2{fill:#e4b363;}</style></defs><title>car</title><path class="cls-1" d="M67,40.09S67,40,67,40c0-2.87-.59-28-21-28H34C20.65,12,13,22.21,13,40c0,0,0,.06,0,.09A6,6,0,0,0,8,46V56a6,6,0,0,0,6,6v5a1,1,0,0,0,1,1h8a1,1,0,0,0,1-1V62H56v5a1,1,0,0,0,1,1h8a1,1,0,0,0,1-1V62a6,6,0,0,0,6-6V46A6,6,0,0,0,67,40.09ZM34,14H46c18.47,0,19,23.34,19,26H63c0-2.46-.5-24-18-24H35c-11.61,0-18,8.52-18,24H15C15,17.38,26.9,14,34,14ZM32,32a8,8,0,0,0-8,8H19c0-18.18,8.7-22,16-22H45c6.34,0,10.91,3.16,13.58,9.39A34.41,34.41,0,0,1,61,40H40A8,8,0,0,0,32,32Zm6,8H26a6,6,0,0,1,12,0ZM22,66H16V62h6Zm42,0H58V62h6Zm6-10a4,4,0,0,1-4,4H14a4,4,0,0,1-4-4V46a4,4,0,0,1,4-4H66a4,4,0,0,1,4,4Z"/><path class="cls-2" d="M19,47a4,4,0,1,0,4,4A4,4,0,0,0,19,47Zm0,6a2,2,0,1,1,2-2A2,2,0,0,1,19,53Z"/><path class="cls-2" d="M61,47a4,4,0,1,0,4,4A4,4,0,0,0,61,47Zm0,6a2,2,0,1,1,2-2A2,2,0,0,1,61,53Z"/><path class="cls-1" d="M51,48H29a1,1,0,0,0,0,2H51a1,1,0,0,0,0-2Z"/><path class="cls-1" d="M51,52H29a1,1,0,0,0,0,2H51a1,1,0,0,0,0-2Z"/><path class="cls-1" d="M50.71,23.29a1,1,0,0,0-1.41,1.41l2,2a1,1,0,0,0,1.41-1.41Z"/><path class="cls-1" d="M45.71,23.29a1,1,0,0,0-1.41,1.41l7,7a1,1,0,0,0,1.41-1.41Z"/></svg>