<svg id="Layer_1" data-name="Layer 1" xmlns="http://www.w3.org/2000/svg" xmlns:xlink="http://www.w3.org/1999/xlink" viewBox="0 0 80 80"><defs><style>.cls-1{fill:none;}.cls-2{clip-path:url(#clip-path);}.cls-3{fill:#6a6a6a;}.cls-4{fill:#e4b363;}</style><clipPath id="clip-path"><rect class="cls-1" x="18.04" y="9.52" width="43.92" height="60.97"/></clipPath></defs><title>customs</title><g class="cls-2"><path class="cls-3" d="M58.91,9.58H29.45l-.12,0h0l-.13,0h0l-.11.05h0l-.11.07,0,0-.1.09h0l-10.5,10.5h0l-.09.1,0,0-.07.11h0l-.05.11v0a1,1,0,0,0,0,.13h0A.92.92,0,0,0,18,21s0,0,0,0V67.24a3.09,3.09,0,0,0,3.08,3.08H58.91A3.09,3.09,0,0,0,62,67.24V12.67a3.09,3.09,0,0,0-3.08-3.08ZM28.53,12.94v6a1.12,1.12,0,0,1-1.12,1.12h-6ZM60,67.24a1.12,1.12,0,0,1-1.12,1.11H21.12A1.12,1.12,0,0,1,20,67.24V22h7.41A3.09,3.09,0,0,0,30.5,19V11.55h28.4A1.12,1.12,0,0,1,60,12.67Zm0,0"/></g><path class="cls-3" d="M27.42,26.24H52.61a1,1,0,0,0,0-2H27.42a1,1,0,0,0,0,2Zm0,0"/><path class="cls-3" d="M27.42,31.49H52.61a1,1,0,1,0,0-2H27.42a1,1,0,0,0,0,2Zm0,0"/><path class="cls-3" d="M27.42,36.74H52.61a1,1,0,0,0,0-2H27.42a1,1,0,0,0,0,2Zm0,0"/><path class="cls-3" d="M27.42,42H52.61a1,1,0,0,0,0-2H27.42a1,1,0,1,0,0,2Zm0,0"/><path class="cls-3" d="M27.42,47.24H52.61a1,1,0,0,0,0-2H27.42a1,1,0,1,0,0,2Zm0,0"/><path class="cls-3" d="M40,52.61H27.42a1,1,0,1,0,0,2H40a1,1,0,0,0,0-2Zm0,0"/><path class="cls-3" d="M40,57.86H27.42a1,1,0,0,0,0,2H40a1,1,0,0,0,0-2Zm0,0"/><path class="cls-4" d="M48.93,54.71a1.51,1.51,0,1,0,1.51,1.51,1.51,1.51,0,0,0-1.51-1.51Zm0,0"/><path class="cls-4" d="M48.93,50.52a5.71,5.71,0,1,0,5.71,5.71,5.71,5.71,0,0,0-5.71-5.71Zm0,9.45a3.74,3.74,0,1,1,3.74-3.74A3.74,3.74,0,0,1,48.93,60Zm0,0"/></svg>