<svg id="Layer_1" data-name="Layer 1" xmlns="http://www.w3.org/2000/svg" viewBox="0 0 80 80"><defs><style>.cls-1{fill:#6a6a6a;}</style></defs><title>estate</title><g id="Stroke-1"><path class="cls-1" d="M58,68.33H22a1,1,0,1,1,0-2h1.88V31.27a1,1,0,0,1,2,0V66.33H34V34.16a1,1,0,0,1,2,0V66.33H44V34.16a1,1,0,1,1,2,0V66.33h8.1V31.27a1,1,0,0,1,2,0V66.33H58a1,1,0,1,1,0,2Z"/></g><g id="Stroke-2"><path class="cls-1" d="M56.23,31a7.12,7.12,0,0,1-7.2-7.2,5.84,5.84,0,0,1,5.9-5.9,4.9,4.9,0,0,1,4.89,4.89,1,1,0,0,1-2,0,2.86,2.86,0,0,0-2.89-2.89,3.86,3.86,0,0,0-3.9,3.9,5.15,5.15,0,0,0,5.2,5.2,6.73,6.73,0,0,0,6.64-6.64,8.67,8.67,0,0,0-8.66-8.66H25.79a8.67,8.67,0,0,0-8.66,8.66A6.73,6.73,0,0,0,23.77,29a5.15,5.15,0,0,0,5.2-5.2,3.86,3.86,0,0,0-3.9-3.9,2.86,2.86,0,0,0-2.89,2.89,1,1,0,0,1-2,0,4.9,4.9,0,0,1,4.89-4.89,5.84,5.84,0,0,1,5.9,5.9,7.13,7.13,0,0,1-7.2,7.2,8.65,8.65,0,0,1-8.64-8.64A10.68,10.68,0,0,1,25.79,11.67H54.21A10.68,10.68,0,0,1,64.87,22.33,8.65,8.65,0,0,1,56.23,31Z"/></g><g id="Stroke-3"><rect class="cls-1" x="29.62" y="23.06" width="20.75" height="2"/></g></svg>