<svg id="Layer_1" data-name="Layer 1" xmlns="http://www.w3.org/2000/svg" viewBox="0 0 80 80"><defs><style>.cls-1{fill:#6a6a6a;}.cls-2{fill:#e4b363;}</style></defs><title>leasing</title><path class="cls-1" d="M63.28,34.92V12.41a3.12,3.12,0,0,0-3.12-3.12H19.84a3.12,3.12,0,0,0-3.12,3.12V34.92a3.12,3.12,0,0,0-2.12,3V67.59a3.12,3.12,0,0,0,3.12,3.12H62.28a3.12,3.12,0,0,0,3.12-3.12V37.88a3.12,3.12,0,0,0-2.12-3Zm-6.19-.16L44.45,25.13,61.28,12.3s0,.07,0,.11V34.76ZM18.71,12.41s0-.07,0-.11L35.55,25.13,22.91,34.76h-4.2ZM42,24.52a3.26,3.26,0,0,1-3.94,0L20.66,11.28H59.34Zm-4.76,1.85a5.25,5.25,0,0,0,5.57,0l11,8.39H26.19Zm26.2,41.22a1.13,1.13,0,0,1-1.13,1.13H17.72a1.13,1.13,0,0,1-1.13-1.13V37.88a1.13,1.13,0,0,1,1.13-1.13H62.28a1.13,1.13,0,0,1,1.13,1.13Zm0,0"/><path class="cls-2" d="M23,40.07a3.12,3.12,0,1,0,3.12,3.12A3.12,3.12,0,0,0,23,40.07Zm0,4.24a1.13,1.13,0,1,1,1.13-1.13A1.13,1.13,0,0,1,23,44.31Zm0,0"/><path class="cls-2" d="M59.1,63.41H50.61a1,1,0,0,0,0,2H59.1a1,1,0,0,0,0-2Zm0,0"/><path class="cls-2" d="M59.1,59.17h-18a1,1,0,1,0,0,2h18a1,1,0,0,0,0-2Zm0,0"/><path class="cls-2" d="M59.1,54.92h-18a1,1,0,0,0,0,2h18a1,1,0,0,0,0-2Zm0,0"/></svg>