<svg id="Layer_1" data-name="Layer 1" xmlns="http://www.w3.org/2000/svg" viewBox="0 0 80 80"><defs><style>.cls-1{fill:#6a6a6a;}</style></defs><title>own</title><path class="cls-1" d="M71,51.32s0,0,0,0h0s0,0,0-.07V51l0-.05v0l0-.06h0L60.27,27.51V24.45h.07a2.08,2.08,0,0,0,2.07-2.07v-.16a2.07,2.07,0,0,0-1.74-2L43.14,17.34v-1.8a4.22,4.22,0,1,0-6.29,0v1.7L19.32,20.16a2.07,2.07,0,0,0-1.73,2v.16a2.08,2.08,0,0,0,2.07,2.07h.07v3.06L9.11,50.86h0l0,.06v0l0,.05v.18s0,0,0,.07H9v0s0,0,0,0c.06,4.13,5.18,7.35,11.71,7.35s11.64-3.22,11.71-7.35v-.08h0s0,0,0-.07V51l0-.05v0l0-.06h0L21.73,27.51V24.45H36.86V46.25a2.08,2.08,0,0,0-1.07,1.81V62.85l-6.36,2a3.13,3.13,0,0,0-2.21,3v1.64a1,1,0,0,0,1,1H51.78a1,1,0,0,0,1-1V67.84a3.13,3.13,0,0,0-2.21-3l-6.36-2V48.07a2.08,2.08,0,0,0-1.07-1.81V24.45H58.27v3.06L47.65,50.86h0l0,.06v0l0,.05v.18s0,0,0,.07h0s0,0,0,0,0,0,0,0c.06,4.13,5.18,7.35,11.71,7.35S70.91,55.48,71,51.36c0,0,0,0,0,0ZM20.73,30.15l9.15,20.12H11.58Zm0,26.55c-4.65,0-8.66-1.94-9.53-4.42H30.26c-.87,2.48-4.88,4.42-9.53,4.42Zm21.48-8.63V62.59H37.79V48.07a.07.07,0,0,1,.07-.07h4.28a.07.07,0,0,1,.07.07ZM38.86,46V16.8a4.2,4.2,0,0,0,2.27,0V46ZM40,10.53a2.21,2.21,0,1,1-2.21,2.21A2.21,2.21,0,0,1,40,10.53ZM19.66,22.44a.07.07,0,0,1-.07-.07v-.16a.07.07,0,0,1,.06-.07l17.21-2.87v3.16Zm31.11,45.4v.63H29.23v-.63a1.13,1.13,0,0,1,.8-1.09l6.92-2.16h6.12L50,66.76a1.13,1.13,0,0,1,.8,1.09ZM43.14,19.37l17.21,2.78a.07.07,0,0,1,.06.07v.16a.07.07,0,0,1-.07.07H43.14ZM59.27,30.15l9.15,20.12H50.12Zm0,26.55c-4.65,0-8.66-1.94-9.53-4.42H68.8c-.87,2.48-4.88,4.42-9.53,4.42Zm0,0"/></svg>