<svg id="Layer_1" data-name="Layer 1" xmlns="http://www.w3.org/2000/svg" viewBox="0 0 80 80"><defs><style>.cls-1{fill:#6a6a6a;}.cls-2{fill:#e4b363;}</style></defs><title>tm</title><path class="cls-1" d="M40,62A22,22,0,1,1,62,40,22,22,0,0,1,40,62Zm0-41.45A19.47,19.47,0,1,0,59.47,40,19.5,19.5,0,0,0,40,20.53Z"/><path class="cls-2" d="M37.5,36.39H33.78V46.92h-2.5V36.39H27.54V34.16h10Z"/><path class="cls-2" d="M49.17,40.31l.27-2.53h-.11l-.78,2-2.72,4.76H45L42.17,39.8l-.8-2h-.09l.36,2.52v6.64H39.27V34.16h2.28L45,40l.6,1.46h.07l.55-1.5,3.23-5.8h2.26V46.92h-2.5Z"/></svg>