<svg id="Layer_1" xmlns="http://www.w3.org/2000/svg" viewBox="0 0 283 42.1"><style>.st0{fill:#782b90}.st1{fill:#fff}</style><path class="st0" d="M27.8 11.6c-.2.6-.4 1.1-.6 1.8l-6.1 17-2.1-5.3v.3c.1.4.1 1.1.2 2.1.2 1 .6 2.1 1.3 3.2.7 1.1 1.8 2.1 3.2 3l4.2-11.6v-11c0 .2 0 .4-.1.5m-3.2-5.2V9h.8c.7.1 1.4.1 1.9.3.3.1.5.3.6.5V6.4h-3.3z"/><path class="st1" d="M66.7 32.5h-1.5v4h-1.6v-9.3h1.6v3.9h1.5c.3-2.3 2.1-4.1 4.4-4.1 2.6 0 4.5 2.1 4.5 4.8 0 2.7-1.8 4.8-4.5 4.8-2.4 0-4.1-1.7-4.4-4.1m7.3-.7c0-1.9-1.2-3.3-2.8-3.3s-2.8 1.4-2.8 3.3 1.2 3.3 2.8 3.3c1.6.1 2.8-1.4 2.8-3.3m3.6-4.6h3.7c2.2 0 3.5 1.2 3.5 3.1 0 2.1-1.7 3.2-3.7 3.2h-1.9v3h-1.6v-9.3zm3.6 4.8c1.2 0 2-.7 2-1.7 0-1.1-.8-1.7-2-1.7h-1.9V32h1.9zm5.3-4.8h1.6V34l4.8-6.8h1.5v9.3h-1.6v-6.8l-4.7 6.8h-1.6zm9.2 7.8h.9c.8-1.5 1.2-3.4 1.2-6.5v-1.3h6.5V35h1.2l-.2 3.5h-1.4v-2h-6.6l-.2 2h-1.4V35zm7 0v-6.4h-3.3v1.1c0 2.2-.4 4-1 5.3h4.3zm4.3-7.8h1.6V34l4.7-6.8h1.5v9.3h-1.6v-6.8l-4.7 6.8H107zm15.7 5.6c-.7.3-1.7.8-2.7.8-1.8 0-3.1-1-3.1-3v-3.4h1.6v3c0 1.2.6 1.9 1.7 1.9.9 0 1.8-.3 2.4-.7v-4.2h1.6v9.3h-1.6v-3.7zm4-5.6h7v1.4h-5.3v2.5h4.7v1.4h-4.7V35h5.3v1.5h-7zm8.6 4.6c0-2.6 2-4.8 4.8-4.8 1.7 0 2.8.6 3.6 1.5l-1.1 1.2c-.7-.7-1.5-1.2-2.6-1.2-1.8 0-3.1 1.5-3.1 3.3 0 1.8 1.3 3.3 3.1 3.3 1.1 0 1.9-.5 2.7-1.2l1 1.1c-1 1-2 1.6-3.8 1.6-2.6 0-4.6-2.1-4.6-4.8m10.2-4.6h1.6v4.7l4.5-4.7h2l-3.9 4 4.1 5.3h-2l-3.2-4.2-1.5 1.5v2.7h-1.6zm9.7 0h1.6V34l4.7-6.8h1.5v9.3h-1.6v-6.8l-4.7 6.8h-1.5zm10.2 0h6.9v1.4h-5.2v2.5h4.6v1.4h-4.6V35h5.3v1.5h-7zm12.7 9l.6-1.2c.4.2.7.3 1.1.3.4 0 1-.3 1.5-1l-3.9-7.1h1.8l2.9 5.4 2.6-5.4h1.8l-3.6 7.3c-.8 1.6-1.7 2.2-3 2.2-.7-.1-1.2-.2-1.8-.5m8.9-4.4c0-2.6 2-4.8 4.8-4.8 1.7 0 2.8.6 3.6 1.5l-1.1 1.2c-.7-.7-1.5-1.2-2.6-1.2-1.8 0-3.1 1.5-3.1 3.3 0 1.8 1.3 3.3 3.1 3.3 1.1 0 1.9-.5 2.7-1.2l1.1 1.1c-1 1-2 1.6-3.8 1.6-2.6 0-4.7-2.1-4.7-4.8m9.1 4.6l.2-1.3c.1 0 .3.1.5.1.9 0 1.8-.6 1.8-6.2v-1.8h6.4v9.3h-1.6v-7.8h-3.2v.8c0 5.9-1.1 7.1-2.9 7.1-.4 0-.9-.1-1.2-.2m11.2-.2l.6-1.2c.4.2.7.3 1.1.3.4 0 1-.3 1.5-1l-3.9-7.1h1.8l2.9 5.4 2.6-5.4h1.8l-3.6 7.3c-.8 1.6-1.7 2.2-3 2.2-.7-.1-1.3-.2-1.8-.5m9.9-9h6.3v1.4h-4.7v7.9h-1.6zm7.9 0h1.6V34l4.8-6.8h1.5v9.3h-1.6v-6.8l-4.7 6.8h-1.6zM63.9 6.4h6c1.5 0 2.7.4 3.4 1.2.6.6.9 1.3.9 2.3 0 1.5-.8 2.3-1.7 2.8 1.5.6 2.4 1.5 2.4 3.2 0 2.4-1.9 3.6-4.9 3.6h-6.2V6.4zm5.4 5.3c1.3 0 2.1-.4 2.1-1.4 0-.9-.7-1.3-1.9-1.3h-2.8v2.8h2.6zm.8 5.2c1.3 0 2-.4 2-1.5 0-.9-.7-1.4-2.1-1.4h-3.3v2.9h3.4zM81.4 6.3H84l5.6 13.1h-3l-1.2-2.9h-5.5l-1.2 2.9h-2.9l5.6-13.1zm3 7.7l-1.7-4.2L81 14h3.4zm25.1 5.5H91.6V6.4h2.9v10.5h4.6V6.4h2.9v10.5h4.6V6.4h2.9zm13.4-5.3h-1.8v5.3h-2.9v-13h2.9v5.2h1.8c.5-3.1 3-5.4 6.3-5.4 3.7 0 6.3 3 6.3 6.7s-2.6 6.7-6.4 6.7c-3.3 0-5.7-2.3-6.2-5.5m9.6-1.2c0-2.3-1.4-4.1-3.4-4.1s-3.4 1.8-3.4 4.1 1.4 4.1 3.4 4.1c2.1 0 3.4-1.8 3.4-4.1m5.5-6.6h5.3c3.1 0 5 1.8 5 4.5 0 3-2.3 4.6-5.3 4.6h-2.2v3.9H138v-13zm5.1 6.6c1.4 0 2.3-.9 2.3-2 0-1.3-.9-2-2.3-2h-2.2v4h2.2zm18.5 6.5h-2.8v-8.6l-5.7 8.6h-2.7V6.4h2.8V15l5.8-8.6h2.6zm2.6-6.5c0-3.7 2.8-6.7 6.8-6.7 2.5 0 3.8.9 5 2.1l-1.7 2c-1-.9-1.9-1.4-3.3-1.4-2.2 0-3.8 1.8-3.8 4.1 0 2.2 1.5 4.1 3.8 4.1 1.5 0 2.4-.6 3.4-1.5l1.8 2c-1.3 1.4-2.8 2.2-5.3 2.2-3.9-.2-6.7-3.2-6.7-6.9m14.3-6.6h2.8v5.7l5.3-5.7h3.5l-5.3 5.6 5.5 7.5h-3.4l-4.1-5.6-1.5 1.6v4h-2.8zm12 6.6c0-3.7 2.9-6.7 6.9-6.7s6.9 3 6.9 6.7-2.9 6.7-6.9 6.7-6.9-3-6.9-6.7m10.9 0c0-2.2-1.6-4.1-3.9-4.1s-3.9 1.8-3.9 4.1c0 2.2 1.6 4.1 3.9 4.1 2.3-.1 3.9-1.9 3.9-4.1m5.5-6.6h2.9v5.2h5.3V6.4h2.8v13.1h-2.8v-5.3h-5.3v5.3h-2.9zm13.6 6.6c0-3.7 2.8-6.7 6.8-6.7 2.5 0 3.8.9 5 2.1l-1.7 2c-1-.9-1.9-1.4-3.3-1.4-2.2 0-3.8 1.8-3.8 4.1 0 2.2 1.5 4.1 3.8 4.1 1.5 0 2.4-.6 3.4-1.5l1.8 2c-1.3 1.4-2.8 2.2-5.3 2.2-3.9-.2-6.7-3.2-6.7-6.9m22.9-6.6h3.1l-5 10.1c-1.1 2.3-2.4 3.2-4.3 3.2-1.1 0-2-.3-2.8-.8l1.1-2.1c.5.3 1 .4 1.5.4s1.1-.2 1.6-1l-5.2-9.7h3.2l3.5 6.9 3.3-7zm15.1 0v13h-2.9V9h-3.8v1c0 7.7-1.2 9.6-4.2 9.6-.5 0-1.2-.1-1.5-.2l.2-2.4h.4c1.5 0 2.4-1 2.4-8V6.4h9.4zm3.1 0h2.9v4.4h2.8c3 0 4.8 1.7 4.8 4.2 0 2.7-1.9 4.4-4.9 4.4h-5.5v-13zm2.9 6.9v3.6h2.5c1.4 0 2.1-.6 2.1-1.8 0-1.1-.7-1.7-2.2-1.7h-2.4zm11.6-4.2h-3.9V6.4H283v2.7h-4v10.4h-2.9z"/><path class="st0" d="M31.7 12.1c.2-.3.3-.5.4-.7.3-.6.8-1.1 1.4-1.7.6-.4 1.5-.7 2.7-.7h.4V6.4H24.7V9h.7c.7.1 1.4.1 1.9.3.5.2.8.5.8 1.1-.1.4-.1.8-.3 1.3-.2.6-.4 1.1-.6 1.8l-6.1 17-7.1-18v-.3c-.1-.1-.1-.2-.1-.3-.1-.2-.1-.2-.1-.3-.1-.1-.1-.2-.1-.3-.1-.2-.1-.4-.1-.5-.1-.2-.1-.3-.1-.4.1-.6.3-.9.7-1 .5-.3 1-.4 1.6-.4h.7V6.4H0V9h.6c.5 0 1 0 1.4.1.4.1.8.4 1.3.8.4.4.7.9 1.1 1.7.4.8.8 1.7 1.3 2.9l10.9 27.6h4.1l9.6-26.6c.1-.2.2-.4.2-.5.1-.2.1-.3.2-.4v-.1l.1-.1c.1-.3.2-.5.3-.7.1-.3.3-.7.5-1.1 0-.1 0-.3.1-.5"/><path class="st0" d="M18.3 3.2c.5.4.7 1.1.7 2.1v16.6l2 5.1 5-14c.1-.2.2-.5.2-.7.1-.4.2-.7.3-1 .1-.4.2-.7.2-.9-.4-.1-.9-.1-1.5-.2h-1.8v-5h4.5c0-1.1.2-1.7.6-2 .5-.4 1.3-.6 2.3-.6h1V0H15.1v2.6h1c1.1.1 1.8.2 2.2.6M41.6 0h-.5v2.6c1.8.1 2.8.3 3.2.6.5.4.7 1.1.7 2.2v17.2c-.1 3.5-.6 6.2-1.8 8-1.2 1.8-3.6 2.8-7.2 2.8-2.4-.1-4.2-.6-5.3-1.6-1.1-1.1-1.9-2.2-2.3-3.4-.2-.8-.4-1.6-.4-2.4v-.4l-3.2 8.8c.1.1.3.2.4.3 2.2 1.2 5.5 1.8 9.8 1.8l.5-.1c5 0 8.4-1.1 10.3-3.3 1.9-2.2 2.9-5.6 2.9-10.2V5.3c0-1.1.2-1.8.6-2.1.5-.4 1.3-.6 2.3-.6h1V0h-11z"/></svg>