<svg id="Layer_1" data-name="Layer 1" xmlns="http://www.w3.org/2000/svg" viewBox="0 0 80 80"><defs><style>.cls-1{fill:#6a6a6a}.cls-2{fill:#e4b363}</style></defs><title>car</title><path class="cls-1" d="M67 40.09V40c0-2.87-.59-28-21-28H34c-13.35 0-21 10.21-21 28v.09A6 6 0 0 0 8 46v10a6 6 0 0 0 6 6v5a1 1 0 0 0 1 1h8a1 1 0 0 0 1-1v-5h32v5a1 1 0 0 0 1 1h8a1 1 0 0 0 1-1v-5a6 6 0 0 0 6-6V46a6 6 0 0 0-5-5.91zM34 14h12c18.47 0 19 23.34 19 26h-2c0-2.46-.5-24-18-24H35c-11.61 0-18 8.52-18 24h-2c0-22.62 11.9-26 19-26zm-2 18a8 8 0 0 0-8 8h-5c0-18.18 8.7-22 16-22h10c6.34 0 10.91 3.16 13.58 9.39A34.41 34.41 0 0 1 61 40H40a8 8 0 0 0-8-8zm6 8H26a6 6 0 0 1 12 0zM22 66h-6v-4h6zm42 0h-6v-4h6zm6-10a4 4 0 0 1-4 4H14a4 4 0 0 1-4-4V46a4 4 0 0 1 4-4h52a4 4 0 0 1 4 4z"/><path class="cls-2" d="M19 47a4 4 0 1 0 4 4 4 4 0 0 0-4-4zm0 6a2 2 0 1 1 2-2 2 2 0 0 1-2 2zm42-6a4 4 0 1 0 4 4 4 4 0 0 0-4-4zm0 6a2 2 0 1 1 2-2 2 2 0 0 1-2 2z"/><path class="cls-1" d="M51 48H29a1 1 0 0 0 0 2h22a1 1 0 0 0 0-2zm0 4H29a1 1 0 0 0 0 2h22a1 1 0 0 0 0-2zm-.29-28.71a1 1 0 0 0-1.41 1.41l2 2a1 1 0 0 0 1.41-1.41zm-5 0a1 1 0 0 0-1.41 1.41l7 7a1 1 0 0 0 1.41-1.41z"/></svg>