<svg id="Layer_1" data-name="Layer 1" xmlns="http://www.w3.org/2000/svg" viewBox="0 0 80 80"><defs><style>.cls-1{fill:#6a6a6a}.cls-2{fill:#e4b363}</style></defs><title>constitution</title><path class="cls-1" d="M52.59 38.9C41.35 38.9 39.1 22 39 21.24a1 1 0 0 1 2-.24c0 .16 2.11 15.91 11.6 15.91a1 1 0 0 1 0 2z"/><path class="cls-2" d="M48.61 57.68a1 1 0 0 1-.45-1.89L68.93 45.4a1 1 0 1 1 .89 1.79L49.05 57.58a1 1 0 0 1-.44.1zm-17.15.03a1 1 0 0 1-.45-.11L10.17 47.19a1 1 0 1 1 .89-1.79l20.85 10.42a1 1 0 0 1-.45 1.89z"/><path class="cls-1" d="M40 49.39a1 1 0 0 1-1-1V21.11a1 1 0 0 1 2 0v27.28a1 1 0 0 1-1 1z"/><path class="cls-1" d="M40 72.48a1 1 0 0 1-.45-.11L10.17 57.68a1 1 0 0 1-.55-.89V8.52A1 1 0 0 1 11 7.6L40 20 69 7.6a1 1 0 0 1 1.39.92v48.27a1 1 0 0 1-.55.89L40.45 72.37a1 1 0 0 1-.45.11zM11.62 56.17L40 70.36l28.38-14.19V10l-28 12a1 1 0 0 1-.79 0l-28-12z"/></svg>