<svg id="Layer_1" data-name="Layer 1" xmlns="http://www.w3.org/2000/svg" viewBox="0 0 80 80"><defs><style>.cls-1{fill:none}.cls-2{clip-path:url(#clip-path)}.cls-3{fill:#6a6a6a}.cls-4{fill:#e4b363}</style><clipPath id="clip-path"><path class="cls-1" d="M18.04 9.52h43.92v60.97H18.04z"/></clipPath></defs><title>customs</title><g class="cls-2"><path class="cls-3" d="M58.91 9.58H29.2l-.11.05-.11.07-.1.09-10.5 10.5-.09.1-.07.11-.05.11a1 1 0 0 0 0 .13.92.92 0 0 0-.17.26v46.24a3.09 3.09 0 0 0 3.08 3.08h37.83A3.09 3.09 0 0 0 62 67.24V12.67a3.09 3.09 0 0 0-3.08-3.08zm-30.38 3.36v6a1.12 1.12 0 0 1-1.12 1.12h-6zM60 67.24a1.12 1.12 0 0 1-1.12 1.11H21.12A1.12 1.12 0 0 1 20 67.24V22h7.41a3.09 3.09 0 0 0 3.09-3v-7.45h28.4a1.12 1.12 0 0 1 1.1 1.12zm0 0"/></g><path class="cls-3" d="M27.42 26.24h25.19a1 1 0 0 0 0-2H27.42a1 1 0 0 0 0 2zm0 5.25h25.19a1 1 0 1 0 0-2H27.42a1 1 0 0 0 0 2zm0 5.25h25.19a1 1 0 0 0 0-2H27.42a1 1 0 0 0 0 2zm0 5.26h25.19a1 1 0 0 0 0-2H27.42a1 1 0 1 0 0 2zm0 5.24h25.19a1 1 0 0 0 0-2H27.42a1 1 0 1 0 0 2zM40 52.61H27.42a1 1 0 1 0 0 2H40a1 1 0 0 0 0-2zm0 5.25H27.42a1 1 0 0 0 0 2H40a1 1 0 0 0 0-2zm0 0"/><path class="cls-4" d="M48.93 54.71a1.51 1.51 0 1 0 1.51 1.51 1.51 1.51 0 0 0-1.51-1.51zm0 0"/><path class="cls-4" d="M48.93 50.52a5.71 5.71 0 1 0 5.71 5.71 5.71 5.71 0 0 0-5.71-5.71zm0 9.45a3.74 3.74 0 1 1 3.74-3.74A3.74 3.74 0 0 1 48.93 60zm0 0"/></svg>