<svg id="Layer_1" data-name="Layer 1" xmlns="http://www.w3.org/2000/svg" viewBox="0 0 80 80"><defs><style>.cls-1{fill:#6a6a6a}.cls-2{fill:#e4b363}</style></defs><title>defence</title><path class="cls-1" d="M15.62 60.65a31.95 31.95 0 0 1 .56-41.94l1.5 1.29a29.95 29.95 0 0 0-.53 39.32zM40 71.94a31.9 31.9 0 0 1-21.24-8.08l1.33-1.49a29.95 29.95 0 0 0 39.19.54l1.29 1.53A32 32 0 0 1 40 71.94zm24.35-11.26l-1.52-1.29a29.95 29.95 0 0 0-.12-38.91l1.52-1.3a31.95 31.95 0 0 1 .13 41.51zm-44.2-43.11l-1.33-1.5a32 32 0 0 1 41.93-.36l-1.3 1.52a29.95 29.95 0 0 0-39.3.34zm8.47 30.6A14 14 0 0 1 28.49 32l1.64 1.14A12 12 0 0 0 30.25 47zM40 54a13.91 13.91 0 0 1-8.25-2.69l1.18-1.62a12 12 0 0 0 14.3-.12l1.21 1.6A13.88 13.88 0 0 1 40 54zm11.21-5.61l-1.6-1.2a12 12 0 0 0 0-14.41l1.6-1.2a14 14 0 0 1 0 16.81zM32.77 30.42l-1.21-1.6a14 14 0 0 1 16.88 0l-1.21 1.6a12 12 0 0 0-14.47 0z"/><path class="cls-1" transform="rotate(-20.09 47.465 60.577)" d="M46.47 51.51h2v18.12h-2z"/><path class="cls-1" transform="rotate(-20.09 32.407 19.365)" d="M31.4 10.4h2v17.94h-2z"/><path class="cls-1" transform="rotate(-69.88 32.393 60.63)" d="M23.41 59.63h17.96v2H23.41z"/><path class="cls-1" transform="rotate(-69.88 47.466 19.498)" d="M38.34 18.5h18.24v2H38.34z"/><path class="cls-1" transform="rotate(-20.22 19.493 47.425)" d="M10.39 46.43h18.2v2h-18.2z"/><path class="cls-1" transform="rotate(-20.22 60.617 32.277)" d="M51.61 31.27H69.6v2H51.61z"/><path class="cls-1" transform="rotate(-70.02 19.485 32.397)" d="M18.49 23.29h2v18.23h-2z"/><path class="cls-1" transform="rotate(-70.03 60.683 47.377)" d="M59.68 38.42h2v17.92h-2z"/><path class="cls-2" d="M29.87 33.45a2 2 0 0 1-1.42-.59L15.88 20.3a2 2 0 0 1 0-2.85l1.57-1.57a2 2 0 0 1 1.42-.59 2 2 0 0 1 1.42.59l12.57 12.56a2 2 0 0 1 0 2.85l-1.57 1.57a2 2 0 0 1-1.42.59zm-11-16.15l-1.57 1.57 12.56 12.57 1.59-1.57L18.88 17.3zm42.18 47.33a2 2 0 0 1-1.42-.63L47.07 51.48a2 2 0 0 1 0-2.85l1.57-1.57a2 2 0 0 1 1.42-.59 2 2 0 0 1 1.42.59L64 59.63a2 2 0 0 1 0 2.85L62.48 64a2 2 0 0 1-1.43.63zm-11-16.15l-1.59 1.57L61 62.63l1.59-1.57zm.01-15.03a2 2 0 0 1-1.42-.59l-1.57-1.57a2 2 0 0 1 0-2.85l12.56-12.56a2 2 0 0 1 1.42-.59 2 2 0 0 1 1.42.59L64 17.45a2 2 0 0 1 0 2.85L51.48 32.86a2 2 0 0 1-1.42.59zm11-16.15L48.48 29.86l1.57 1.59 12.58-12.57zM18.88 64.63a2 2 0 0 1-1.43-.63l-1.57-1.57a2 2 0 0 1 0-2.85l12.56-12.51a2 2 0 0 1 2.85 0l1.57 1.57a2 2 0 0 1 0 2.85L20.3 64a2 2 0 0 1-1.42.59zm11-16.15L17.3 61l1.57 1.59 12.58-12.52z"/></svg>