<svg id="Layer_1" data-name="Layer 1" xmlns="http://www.w3.org/2000/svg" viewBox="0 0 80 80"><defs><style>.cls-1{fill:#6a6a6a}.cls-2{fill:#e4b363}</style></defs><title>dialog</title><path class="cls-1" d="M68 16H24a4 4 0 0 0-4 4v6h-8a4 4 0 0 0-4 4v30a4 4 0 0 0 4 4h7a1 1 0 0 1 1 1v11a4 4 0 0 0 6.83 2.83L41 64.67a2.13 2.13 0 0 1 1.66-.67H58a4 4 0 0 0 4-4v-8h6a4 4 0 0 0 4-4V20a4 4 0 0 0-4-4zm-8 44a2 2 0 0 1-2 2H42.66A3.21 3.21 0 0 0 40 63L26 77c-2.14 2.14-4 .39-4-1V64a2 2 0 0 0-2-2h-8a2 2 0 0 1-2-2V30a2 2 0 0 1 2-2h46a2 2 0 0 1 2 2zm10-12a2 2 0 0 1-2 2h-6V30a4 4 0 0 0-4-4H22v-6a2 2 0 0 1 2-2h44a2 2 0 0 1 2 2z"/><path class="cls-2" d="M21 40h13a1 1 0 0 0 0-2H21a1 1 0 0 0 0 2zm28 4H21a1 1 0 0 0 0 2h28a1 1 0 0 0 0-2zm-7 6H21a1 1 0 0 0 0 2h21a1 1 0 0 0 0-2z"/></svg>