<svg id="Layer_1" data-name="Layer 1" xmlns="http://www.w3.org/2000/svg" viewBox="0 0 80 80"><defs><style>.cls-1{fill:#6a6a6a}</style></defs><title>estate</title><path class="cls-1" d="M58 68.33H22a1 1 0 1 1 0-2h1.88V31.27a1 1 0 0 1 2 0v35.06H34V34.16a1 1 0 0 1 2 0v32.17h8V34.16a1 1 0 1 1 2 0v32.17h8.1V31.27a1 1 0 0 1 2 0v35.06H58a1 1 0 1 1 0 2z" id="Stroke-1"/><path class="cls-1" d="M56.23 31a7.12 7.12 0 0 1-7.2-7.2 5.84 5.84 0 0 1 5.9-5.9 4.9 4.9 0 0 1 4.89 4.89 1 1 0 0 1-2 0 2.86 2.86 0 0 0-2.89-2.89 3.86 3.86 0 0 0-3.9 3.9 5.15 5.15 0 0 0 5.2 5.2 6.73 6.73 0 0 0 6.64-6.64 8.67 8.67 0 0 0-8.66-8.66H25.79a8.67 8.67 0 0 0-8.66 8.66A6.73 6.73 0 0 0 23.77 29a5.15 5.15 0 0 0 5.2-5.2 3.86 3.86 0 0 0-3.9-3.9 2.86 2.86 0 0 0-2.89 2.89 1 1 0 0 1-2 0 4.9 4.9 0 0 1 4.89-4.89 5.84 5.84 0 0 1 5.9 5.9 7.13 7.13 0 0 1-7.2 7.2 8.65 8.65 0 0 1-8.64-8.64 10.68 10.68 0 0 1 10.66-10.69h28.42a10.68 10.68 0 0 1 10.66 10.66A8.65 8.65 0 0 1 56.23 31z" id="Stroke-2"/><path class="cls-1" d="M29.62 23.06h20.75v2H29.62z" id="Stroke-3"/></svg>