<svg id="Layer_1" data-name="Layer 1" xmlns="http://www.w3.org/2000/svg" viewBox="0 0 80 80"><defs><style>.cls-1{fill:#6a6a6a}.cls-2{fill:#e4b363}</style></defs><title>leasing</title><path class="cls-1" d="M63.28 34.92V12.41a3.12 3.12 0 0 0-3.12-3.12H19.84a3.12 3.12 0 0 0-3.12 3.12v22.51a3.12 3.12 0 0 0-2.12 3v29.67a3.12 3.12 0 0 0 3.12 3.12h44.56a3.12 3.12 0 0 0 3.12-3.12V37.88a3.12 3.12 0 0 0-2.12-3zm-6.19-.16l-12.64-9.63L61.28 12.3v22.46zM18.71 12.41v-.11l16.84 12.83-12.64 9.63h-4.2zM42 24.52a3.26 3.26 0 0 1-3.94 0l-17.4-13.24h38.68zm-4.76 1.85a5.25 5.25 0 0 0 5.57 0l11 8.39H26.19zm26.2 41.22a1.13 1.13 0 0 1-1.13 1.13H17.72a1.13 1.13 0 0 1-1.13-1.13V37.88a1.13 1.13 0 0 1 1.13-1.13h44.56a1.13 1.13 0 0 1 1.13 1.13zm0 0"/><path class="cls-2" d="M23 40.07a3.12 3.12 0 1 0 3.12 3.12A3.12 3.12 0 0 0 23 40.07zm0 4.24a1.13 1.13 0 1 1 1.13-1.13A1.13 1.13 0 0 1 23 44.31zm36.1 19.1h-8.49a1 1 0 0 0 0 2h8.49a1 1 0 0 0 0-2zm0-4.24h-18a1 1 0 1 0 0 2h18a1 1 0 0 0 0-2zm0-4.25h-18a1 1 0 0 0 0 2h18a1 1 0 0 0 0-2zm0 0"/></svg>