<svg id="Layer_1" data-name="Layer 1" xmlns="http://www.w3.org/2000/svg" viewBox="0 0 80 80"><defs><style>.cls-1{fill:#6a6a6a}</style></defs><title>own</title><path class="cls-1" d="M71 51.32v-.43L60.27 27.51v-3.06h.07a2.08 2.08 0 0 0 2.07-2.07v-.16a2.07 2.07 0 0 0-1.74-2l-17.53-2.88v-1.8a4.22 4.22 0 1 0-6.29 0v1.7l-17.53 2.92a2.07 2.07 0 0 0-1.73 2v.16a2.08 2.08 0 0 0 2.07 2.07h.07v3.06L9.11 50.86v.36H9c.06 4.13 5.18 7.35 11.71 7.35s11.64-3.22 11.71-7.35v-.33L21.73 27.51v-3.06h15.13v21.8a2.08 2.08 0 0 0-1.07 1.81v14.79l-6.36 2a3.13 3.13 0 0 0-2.21 3v1.64a1 1 0 0 0 1 1h23.56a1 1 0 0 0 1-1v-1.65a3.13 3.13 0 0 0-2.21-3l-6.36-2V48.07a2.08 2.08 0 0 0-1.07-1.81V24.45h15.13v3.06L47.65 50.86v.36c.06 4.13 5.18 7.35 11.71 7.35S70.91 55.48 71 51.36zM20.73 30.15l9.15 20.12h-18.3zm0 26.55c-4.65 0-8.66-1.94-9.53-4.42h19.06c-.87 2.48-4.88 4.42-9.53 4.42zm21.48-8.63v14.52h-4.42V48.07a.07.07 0 0 1 .07-.07h4.28a.07.07 0 0 1 .07.07zM38.86 46V16.8a4.2 4.2 0 0 0 2.27 0V46zM40 10.53a2.21 2.21 0 1 1-2.21 2.21A2.21 2.21 0 0 1 40 10.53zM19.66 22.44a.07.07 0 0 1-.07-.07v-.16a.07.07 0 0 1 .06-.07l17.21-2.87v3.16zm31.11 45.4v.63H29.23v-.63a1.13 1.13 0 0 1 .8-1.09l6.92-2.16h6.12L50 66.76a1.13 1.13 0 0 1 .8 1.09zm-7.63-48.47l17.21 2.78a.07.07 0 0 1 .06.07v.16a.07.07 0 0 1-.07.07h-17.2zm16.13 10.78l9.15 20.12h-18.3zm0 26.55c-4.65 0-8.66-1.94-9.53-4.42H68.8c-.87 2.48-4.88 4.42-9.53 4.42zm0 0"/></svg>