<svg id="Layer_1" data-name="Layer 1" xmlns="http://www.w3.org/2000/svg" viewBox="0 0 80 80"><defs><style>.cls-1{fill:#6a6a6a}.cls-2{fill:#e4b363}</style></defs><title>tm</title><path class="cls-1" d="M40 62a22 22 0 1 1 22-22 22 22 0 0 1-22 22zm0-41.45A19.47 19.47 0 1 0 59.47 40 19.5 19.5 0 0 0 40 20.53z"/><path class="cls-2" d="M37.5 36.39h-3.72v10.53h-2.5V36.39h-3.74v-2.23h10zm11.67 3.92l.27-2.53h-.11l-.78 2-2.72 4.76H45l-2.83-4.74-.8-2h-.09l.36 2.52v6.64h-2.37v-12.8h2.28L45 40l.6 1.46h.07l.55-1.5 3.23-5.8h2.26v12.76h-2.5z"/></svg>